<svg xmlns="http://www.w3.org/2000/svg" viewBox="0 0 64 64">
  <rect width="64" height="64" rx="14" fill="#050505"/>
  <path
    d="M30.5 12.5c-9.8 0-17.8 8-17.8 17.8 0 5.9 2.9 11.2 7.3 14.4v6.8h10.5"
    fill="none"
    stroke="#f5f2eb"
    stroke-width="2.4"
    stroke-linecap="round"
    stroke-linejoin="round"
  />
  <path
    d="M30.5 17.5c-5.8 0-10.6 4.7-10.6 10.6m10.6-4.7c-3.7 0-6.7 3-6.7 6.7m6.7.7c-5.3 0-9.6 4.3-9.6 9.6m9.6-3.5c-3.3 0-6 2.7-6 6"
    fill="none"
    stroke="#b8b8b8"
    stroke-width="1.55"
    stroke-linecap="round"
  />
  <path d="M39.5 12.5v39" fill="none" stroke="#b89a70" stroke-width="2" stroke-linecap="round"/>
  <path d="M39.5 19.5h8m-8 12h11m-11 12h8" fill="none" stroke="#789b98" stroke-width="1.7" stroke-linecap="round"/>
  <circle cx="39.5" cy="31.5" r="3.6" fill="#b89a70" stroke="#050505" stroke-width="1.4"/>
</svg>
